<svg width="41" height="39" viewBox="0 0 41 39" fill="none" xmlns="http://www.w3.org/2000/svg">
<path d="M24.9207 12.8413L40.4268 21.4959L40.4268 15.1253C40.4268 12.3866 39.0028 9.84146 36.6598 8.39233L25.0339 1.20185C22.6137 -0.295025 19.573 -0.400653 17.0531 0.924609L4.75244 7.39384C2.1361 8.76984 0.50016 11.4668 0.50016 14.404L0.500159 21.4959L17.2694 12.7358C19.6725 11.4804 22.5537 11.5201 24.9207 12.8413Z" fill="#292D32"/>
<path d="M31.745 24.9457L40.5 21.5687L40.5 29.8024C40.5 32.5215 38.8248 34.9644 36.2751 35.9635L31.531 37.8224C29.6809 38.5473 27.6013 38.4166 25.8583 37.4658L24.0956 36.5042C22.3108 35.5306 20.1757 35.418 18.2969 36.1984L15.0472 37.5483C13.5255 38.1804 11.8217 38.2315 10.2642 37.6918L4.97591 35.8591C2.29535 34.9302 0.500007 32.4217 0.500007 29.6054L0.500008 21.5687L9.8323 25.0816C11.6432 25.7633 13.6632 25.6316 15.3686 24.7208L17.8404 23.4007C19.9601 22.2687 22.53 22.3557 24.567 23.6285L25.7642 24.3765C27.5543 25.4952 29.773 25.7063 31.745 24.9457Z" fill="#292D32"/>
</svg>
