<svg width="80" height="77" viewBox="0 0 80 77" fill="none" xmlns="http://www.w3.org/2000/svg">
<path d="M48.842 25.6826L79.854 42.9919L79.854 30.2506C79.854 24.7731 77.0061 19.6829 72.3201 16.7846L49.0683 2.40368C44.2278 -0.590065 38.1465 -0.80132 33.1068 1.8492L8.50536 14.7877C3.27268 17.5397 0.000807713 22.9336 0.000807457 28.8081L0.000806837 42.9919L33.5392 25.4716C38.3455 22.9608 44.1079 23.0403 48.842 25.6826Z" fill="#02FE0A"/>
<path d="M62.49 49.8914L80 43.1375L80 59.6049C80 65.043 76.6496 69.9289 71.5502 71.927L62.062 75.6448C58.3618 77.0947 54.2026 76.8332 50.7166 74.9316L47.1912 73.0084C43.6216 71.0612 39.3513 70.836 35.5938 72.3969L29.0945 75.0966C26.051 76.3608 22.6434 76.463 19.5285 75.3836L8.95182 71.7182C3.5907 69.8604 1.43022e-05 64.8435 1.45504e-05 59.2109L1.52588e-05 43.1375L18.6646 50.1632C22.2863 51.5266 26.3264 51.2633 29.7372 49.4417L34.6808 46.8015C38.9202 44.5373 44.0601 44.7114 48.1339 47.257L50.5283 48.7531C54.1087 50.9904 58.5461 51.4126 62.49 49.8914Z" fill="#02FE0A"/>
</svg>
